# xmcd
#
# Track frame offsets:
#	150
#	14211
#	35979
#	49662
#	64649
#	78098
#	96732
#	111037
#	128919
#	149092
#	165437
#	180050
#	192069
#	205277
#	217087
#	231276
#	253792
#	269681
#	279656
#	290980
#	302045
#	327250
#
# Disc length: 4492 seconds
#
# Revision: 1
# Processed by: cddbd v1.5.1PL0 Copyright (c) Steve Scherf et al.
# Submitted via: audiograbber 1.83.01
#
DISCID=5e118a16
DTITLE=Bill Gaither - Southern Convention Songs
DYEAR=2003
DGENRE=Gospel
TTITLE0=All The Day Long 
TTITLE1=Beautiful Star Of Bethlehem
TTITLE2=Get On The Happy Side Of Living 
TTITLE3=He Will Surely Make It All Right
TTITLE4=He's A Personal Savior
TTITLE5=His Hand In Mine
TTITLE6=I Have A Song Inside 
TTITLE7=I Just Steal Away And Pray 
TTITLE8=I Know He Heard My Prayer 
TTITLE9=I'd Rather Have Jesus
TTITLE10=I'll Meet You By The River 
TTITLE11=Jesus Is Mine 
TTITLE12=I'll Meet You In The Morning 
TTITLE13=Just Over In The Glory Land 
TTITLE14=Looking For A City 
TTITLE15=My Savior First Of All 
TTITLE16=That Glad Reunion Day 
TTITLE17=Miracles Will Happen On That Day
TTITLE18=The Dearest Friend I Ever Had 
TTITLE19=The Prettiest Flowers Will Be Blooming
TTITLE20=We'll Soon Be Done With Troubles And Trials
TTITLE21=When They Ring The Bells Of Heaven 
EXTD=
EXTT0=
EXTT1=
EXTT2=
EXTT3=
EXTT4=
EXTT5=
EXTT6=
EXTT7=
EXTT8=
EXTT9=
EXTT10=
EXTT11=
EXTT12=
EXTT13=
EXTT14=
EXTT15=
EXTT16=
EXTT17=
EXTT18=
EXTT19=
EXTT20=
EXTT21=
PLAYORDER=
